<svg fill="currentColor" viewBox="0 0 128 128" xmlns="http://www.w3.org/2000/svg"><g><path d="m114.4 51.093a.285.285 0 0 0 0-.029v-14.314a1.749 1.749 0 0 0 -.666-1.374l-12.67-10a1.751 1.751 0 0 0 -1.084-.376h-8.8v-12.5a7.759 7.759 0 0 0 -7.75-7.75h-56.555a7.759 7.759 0 0 0 -7.75 7.75v32.593.1 68.557h-3.779a1.75 1.75 0 0 0 -1.75 1.75v6a1.75 1.75 0 0 0 1.75 1.75h79.616a1.749 1.749 0 0 0 1.75-1.75v-6a1.749 1.749 0 0 0 -1.75-1.75h-3.782v-32.89h2.19a.681.681 0 0 1 .68.68v15.59a10.175 10.175 0 1 0 20.35 0v-40.008a.285.285 0 0 0 0-.029zm-3.5 2.186v1.692.029.343h-2.5v-2.5h2.5v.407zm0-15.68v11.744h-2.5v-9.683a1.913 1.913 0 0 0 -.7-1.4 1.745 1.745 0 0 0 -1.111-.4h-8.579v-5.013c0-.033.01-.064.01-.1v-4.247h1.353zm-17.53 33.761h-2.19v-26.209c0-.02 0-.039 0-.058v-10.593h3.33v5.11a1.749 1.749 0 0 0 1.75 1.75h1.46v2.64a4.756 4.756 0 0 0 4.75 4.75h2.43v4.5.029 1.692.029 42.13a.675.675 0 1 1 -1.35 0v-15.59a10.192 10.192 0 0 0 -10.18-10.18zm11.53-30v3.89h-2.43a1.251 1.251 0 0 1 -1.25-1.25v-2.64zm-10.38-12.86v2.5h-3.337v-2.5zm-67.645-20.25h56.558a4.255 4.255 0 0 1 4.25 4.25v32.622a4.253 4.253 0 0 1 -4.247 4.221h-56.561a4.252 4.252 0 0 1 -4.245-4.2v-18.053c0-.017 0-.032 0-.048v-14.542a4.255 4.255 0 0 1 4.245-4.25zm66.337 111.5h-76.112v-2.5h76.112zm-70.582-6v-62.181a7.7 7.7 0 0 0 4.245 1.274h56.558a7.707 7.707 0 0 0 4.247-1.275v62.182zm81.6-9.94a6.688 6.688 0 0 1 -6.68-6.68v-15.59a4.185 4.185 0 0 0 -4.18-4.18h-2.19v-2.5h2.19a6.687 6.687 0 0 1 6.68 6.68v15.59a4.175 4.175 0 1 0 8.35 0v-38.287h2.5v38.287a6.683 6.683 0 0 1 -6.67 6.68z"/><path d="m26.875 77.207a1.75 1.75 0 0 0 -1.75 1.75v7a1.75 1.75 0 0 0 3.5 0v-7a1.749 1.749 0 0 0 -1.75-1.75z"/><path d="m32.875 40.843h44.558a1.75 1.75 0 0 0 1.75-1.75v-20.593a1.75 1.75 0 0 0 -1.75-1.75h-44.558a1.75 1.75 0 0 0 -1.75 1.75v20.593a1.75 1.75 0 0 0 1.75 1.75zm1.75-20.593h41.058v17.093h-41.058z"/><path d="m55.154 70.094a15.654 15.654 0 1 0 15.654 15.654 15.671 15.671 0 0 0 -15.654-15.654zm0 27.807a12.154 12.154 0 1 1 12.154-12.153 12.167 12.167 0 0 1 -12.154 12.152z"/><path d="m53.9 76.143c-.665.683-6.495 6.828-6.495 11.99a7.75 7.75 0 0 0 15.5 0c0-5.162-5.831-11.307-6.5-11.99a1.8 1.8 0 0 0 -2.505 0zm1.255 16.24a4.255 4.255 0 0 1 -4.25-4.25c0-2.5 2.455-6 4.25-8.145 1.794 2.149 4.25 5.645 4.25 8.145a4.255 4.255 0 0 1 -4.251 4.25z"/></g></svg>
